<?xml version="1.0" encoding="utf-8"?>
<!-- Generator: Adobe Illustrator 14.0.0, SVG Export Plug-In . SVG Version: 6.00 Build 43363)  -->
<!DOCTYPE svg PUBLIC "-//W3C//DTD SVG 1.1//EN" "http://www.w3.org/Graphics/SVG/1.1/DTD/svg11.dtd">
<svg version="1.1" id="Layer_1" xmlns="http://www.w3.org/2000/svg" xmlns:xlink="http://www.w3.org/1999/xlink" x="0px" y="0px"
	 width="100px" height="100px" viewBox="0 0 100 100" enable-background="new 0 0 100 100" xml:space="preserve">
<g id="globe">
	<path fill="none" stroke="#00A14B" stroke-width="2" d="M86.45,58.18c0,14.138-16.564,25.597-37.001,25.597
		c-20.431,0-36.997-11.459-36.997-25.597c0-14.136,16.566-25.595,36.997-25.595C69.886,32.585,86.45,44.043,86.45,58.18z"/>
</g>
<path opacity="0.25" fill="#8EC549" d="M79.492,58.576c0,0-0.23,0.104-0.359,0.174c-0.128,0.068-0.332,0.052-0.69,0.053
	c-0.359,0.002-0.283,0.054-0.565,0.055c-0.285,0-0.182,0.121-0.441,0.14c-0.259,0.019-0.441,0.036-0.598,0.037
	c-0.157,0.001-0.154-0.138-0.258-0.138c-0.086,0-0.135-0.058-0.15-0.107c-0.002-0.011-0.006-0.021-0.004-0.03
	c0-0.053,0.002-0.14,0.003-0.243c0-0.104-0.104-0.173-0.234-0.241c-0.131-0.069-0.129-0.139-0.313-0.277
	c-0.183-0.139-0.445-0.313-0.711-0.347c-0.264-0.035-0.025-0.104-0.372-0.418s-0.134-0.122-0.215-0.35
	c-0.033-0.089-0.069-0.126-0.117-0.151c-0.074-0.038-0.178-0.047-0.34-0.163c-0.272-0.194-0.217-0.124-0.272-0.194
	c-0.054-0.071-0.031-0.28-0.033-0.333c0-0.053-0.305-0.458-0.419-0.653s-0.3-0.091-0.221-0.144c0.044-0.028,0.006-0.063-0.052-0.134
	c-0.049-0.061-0.109-0.145-0.152-0.274c-0.091-0.284-0.29-0.5-0.546-0.7c-0.255-0.199-0.172-0.163-0.179-0.307
	c-0.005-0.143-0.459-0.383-0.464-0.473c-0.004-0.09-0.151-0.255-0.093-0.2c0.058,0.056,0.234,0.274,0.322,0.365
	c0.087,0.092,0.031,0.073,0.397,0.274c0.365,0.203,0.106-0.051,0.123-0.248c0.007-0.06-0.015-0.156-0.045-0.259
	c-0.075-0.237-0.215-0.519-0.272-0.52c-0.082-0.001-0.138-0.021-0.359-0.025c-0.219-0.004-0.167-0.039-0.388-0.044
	c-0.223-0.004-0.173-0.112-0.533-0.119c-0.362-0.008-0.381,0.155-0.656,0.223c-0.275,0.066-0.774-0.234-0.917-0.257
	c-0.144-0.021-0.569-0.013-0.684-0.016c-0.081-0.002-0.152-0.048-0.246-0.078c-0.04-0.012-0.083-0.021-0.133-0.022
	c-0.172-0.003-0.557-0.141-0.557-0.141s-0.147-0.06-0.332-0.193c-0.182-0.134-0.437-0.029-0.613-0.034
	c-0.174-0.004-0.251,0.16-0.393,0.231c-0.142,0.069,0.021,0.295,0.027,0.425c0.01,0.129-0.113,0.034-0.258,0.104
	c-0.142,0.07-0.501,0.008-0.685-0.09c-0.186-0.098-0.063-0.075-0.221-0.172c-0.154-0.096-0.57-0.052-0.69-0.054
	c-0.12-0.004-0.182-0.005-0.224-0.192c-0.043-0.188-0.258-0.23-0.258-0.23c0.001,0-0.486-0.051-0.701-0.057
	c-0.213-0.006-0.4-0.05-0.554-0.054c-0.083-0.003-0.154-0.061-0.23-0.113c-0.062-0.044-0.13-0.085-0.214-0.088
	c-0.185-0.005-0.255-0.12-0.255-0.12s-0.132-0.099-0.106-0.211c0.021-0.113,0.173-0.165,0.258-0.258
	c0.086-0.091-0.081-0.248-0.146-0.307c-0.065-0.06,0.196-0.241,0.196-0.241s-0.269,0.105-0.276,0.011
	c-0.008-0.096-0.382-0.147-0.382-0.147c-0.134,0.015-0.268,0.029-0.401,0.044c0,0-0.311,0.008-0.405,0.005
	c-0.094-0.003-0.407,0.005-0.407,0.005c-0.18-0.007-0.358-0.013-0.539-0.02c0,0-0.281,0.029-0.888,0.064
	c-0.608,0.037-0.644,0.016-0.741,0.013c-0.097-0.003-0.322,0.028-0.322,0.028s-0.39,0.024-0.518,0.078
	c-0.128,0.053-0.158,0.11-0.289,0.105c-0.132-0.004-0.264,0.01-0.524,0.079c-0.263,0.068,0,0-0.095,0.074
	c-0.07,0.054-0.106,0.079-0.186,0.078c-0.028,0.001-0.065-0.004-0.111-0.01c-0.168-0.025-0.168-0.045-0.27-0.068
	c-0.103-0.023-0.202-0.007-0.337-0.012s-0.303-0.011-0.438-0.015c-0.137-0.005-0.344-0.09-0.344-0.09s-0.144-0.141-0.382-0.17
	c-0.24-0.028-0.202,0.071-0.202,0.071s-0.029,0.097-0.062,0.174c-0.03,0.077-0.164,0.171-0.159,0.268
	c0.003,0.099-0.272,0.089-0.34,0.165c-0.066,0.076-0.238,0.071-0.446,0.122c-0.207,0.052-0.383,0.026-0.52,0.159
	s-0.311,0.226-0.344,0.324c-0.031,0.097-0.173,0.132-0.171,0.249c0.004,0.118,0.078,0.258,0.078,0.258
	c-0.01,0.053-0.021,0.104-0.031,0.156c0,0-0.283,0.13-0.28,0.268c0.003,0.137-0.534,0.104-0.535,0.104
	c0.001,0-0.395,0.107-0.502,0.185c-0.108,0.076-0.399,0.108-0.509,0.125c-0.002,0-0.003,0.002-0.005,0.002
	c-0.099,0.023,0.074,0.26-0.505,0.423c-0.587,0.166-0.587,0.485-0.662,0.563c-0.074,0.078-0.11,0.117-0.26,0.215
	c-0.149,0.097-0.223,0.295-0.223,0.295s-0.376,0.234-0.528,0.393c-0.15,0.157-0.113,0.079-0.15,0.219
	c-0.038,0.14,0.075,0.142,0.151,0.242c0.075,0.102,0.038,0.081,0.227,0.123c0.189,0.042,0,0.261,0,0.44s0.038,0.101,0.038,0.28
	s-0.074,0.239-0.074,0.46c0,0.069,0,0.115-0.003,0.15c-0.005,0.075-0.021,0.088-0.073,0.13c-0.075,0.06-0.343,0.34-0.343,0.34
	s-0.076,0.12-0.076,0.221s0,0.121,0,0.241s0,0-0.075,0.181c-0.077,0.182,0,0-0.038,0.141c-0.039,0.142,0.267,0.24,0.267,0.24
	s0,0,0.02,0.016c0.019,0.015,0.058,0.044,0.132,0.103c0.152,0.12,0.491,0.057,0.491,0.057c-0.084,0.121,0.125,0.193,0.236,0.224
	c0.038,0.01,0.065,0.015,0.065,0.015s0.149,0.159,0.299,0.217c0.148,0.059,0.112,0.098,0.334,0.195
	c0.137,0.061,0.231,0.165,0.284,0.236c0.032,0.045,0.049,0.078,0.049,0.078s0,0.179-0.001,0.237c0,0.06,0.258,0.155,0.367,0.213
	c0.11,0.058,0.183,0.076,0.438,0.152c0.061,0.018,0.107,0.035,0.145,0.055c0.117,0.058,0.145,0.117,0.254,0.175
	c0.145,0.078,0.792,0.359,0.79,0.359c0,0,0.393,0.13,0.673,0.262c0.284,0.131,0.39,0.051,0.39,0.051
	c0.03-0.004,0.06-0.008,0.089-0.011c0.101-0.013,0.201-0.024,0.3-0.036c0.001-0.001,0.354-0.124,0.458-0.126s0.248-0.103,0.628-0.11
	c0.383-0.006,0.484-0.008,0.793-0.014s0.137,0.055,0.339,0.109c0.12,0.031,0.238,0.022,0.318,0.011
	c0.055-0.009,0.09-0.019,0.09-0.019c0.114-0.028,0.229-0.056,0.341-0.083c0,0,0.271-0.044,0.372-0.084s0.306-0.121,0.474-0.124
	c0.166-0.003,0.202-0.099,0.401-0.101c0.2-0.004,0.201-0.118,0.202-0.118c0,0,0.046-0.006,0.112-0.013
	c0.135-0.016,0.352-0.04,0.482-0.054c0.008-0.001,0.018-0.002,0.025-0.002c0.191-0.02,0.411-0.005,0.662-0.009
	c0.259-0.005,0.226,0.071,0.575,0.217c0.351,0.145,0.062,0.148,0.021,0.319c-0.038,0.17,0.093,0.148,0.316,0.145
	c0.226-0.004,0.452-0.083,0.643-0.087c0.191-0.004,0.639-0.124,0.637-0.124c0.002,0.002,0.005,0.003,0.007,0.005
	c0.069,0.061,0.138,0.119,0.208,0.178c0,0,0.154,0.071,0.363,0.292c0.149,0.157,0.078,0.251,0,0.334
	c-0.031,0.033-0.063,0.064-0.082,0.099c-0.045,0.075-0.107,0.193-0.145,0.297c-0.019,0.052-0.031,0.1-0.033,0.137
	c-0.008,0.114-0.231,0.212-0.311,0.497c-0.064,0.24,0.452,0.648,0.916,0.933c0.088,0.054,0.175,0.104,0.255,0.146
	c0.12,0.062,0.198,0.136,0.257,0.215c0.069,0.096,0.105,0.2,0.129,0.305c0.038,0.18,0.041,0.361,0.116,0.507
	c0.157,0.299,0.457,0.326,0.274,0.333c-0.183,0.006-0.102,0.462,0.073,0.532c0.173,0.07,0.189,0.528-0.209,0.893
	c-0.344,0.313-0.735,1.033-0.908,1.485c-0.028,0.072-0.05,0.14-0.065,0.193c-0.1,0.396,0.936,1.676,0.93,1.679
	c0,0,0.182,0.844,0.125,1.219c-0.044,0.312,0.354,0.666,0.51,0.849c0.029,0.034,0.052,0.063,0.058,0.085
	c0.039,0.124-0.01,0.461,0.338,0.833c0.349,0.372-0.229,0.69,0.102,1.159c0.327,0.471,0.649,0.288,1.151,0.054
	c0.504-0.233,0.757-0.021,0.99-0.026c0.23-0.007,0.787-0.24,1.135-0.25c0.345-0.01,0.297-0.403,1.014-0.596
	c0.715-0.194,0.848-0.33,1.029-0.766c0.181-0.435,0.597-0.573,1.024-0.798c0.371-0.195,0.384-0.283,0.269-0.551
	c-0.017-0.039-0.037-0.082-0.06-0.129c-0.17-0.37,0.98-0.609,0.979-0.609c0.194-0.005,0.361-0.197,0.469-0.609
	s0.085-0.671-0.218-0.903c-0.305-0.231,0.147-0.305,0.353-0.39c0.201-0.085,0.38-0.189,0.559-0.313
	c0.179-0.123,0.249-0.264,0.367-0.345c0.12-0.081,0.595-0.191,0.739-0.273c0.145-0.083,0.429-0.206,0.639-0.405
	c0.209-0.199,0.237-0.22,0.177-0.429c-0.062-0.21,0.021-0.212,0.06-0.631c0.038-0.418,0.099-0.493,0.099-0.493
	s-0.048-0.09-0.103-0.211c-0.069-0.15-0.154-0.35-0.187-0.492c-0.061-0.259,0.028-0.371-0.07-0.479s-0.144-0.218-0.15-0.475
	c-0.009-0.249,0.234-0.104,0.26-0.284c0-0.005,0.002-0.008,0.002-0.013c0.014-0.2,0.046-0.274,0.211-0.35s-0.032-0.326,0.184-0.365
	c0.179-0.032,0.384-0.227,0.448-0.292c0.013-0.013,0.02-0.021,0.02-0.021c0.002,0,0.304-0.184,0.358-0.238
	c0.056-0.055,0.411-0.345,0.495-0.452s0.485-0.29,0.564-0.345c0.08-0.053,0.343-0.074,0.397-0.145
	c0.055-0.072,0.429-0.392,0.561-0.445c0.131-0.054,0.396-0.301,0.504-0.459c0.107-0.157,0.164-0.332,0.479-0.697
	c0.314-0.366,0.375-1.105,0.554-1.26C79.772,58.507,79.492,58.576,79.492,58.576z M52.497,53.381
	c0.03,0.003,0.099,0.005,0.165,0.007c0.038,0.002,0.074,0.003,0.105,0.004C52.682,53.39,52.544,53.385,52.497,53.381z"/>
<path opacity="0.25" fill="#8EC549" d="M23.312,44.289c0,0,0.199-0.055,0.317-0.111c0.118-0.054,0.402-0.393,0.472-0.436
	c0.069-0.042-0.803,0.033-0.802,0.032c-0.107,0.101-0.397,0.392-0.483,0.462c-0.085,0.07-0.051,0.363-0.15,0.39
	c-0.098,0.027-0.295,0.333-0.428,0.412c-0.134,0.082-0.299,0.306-0.299,0.305c0.055,0.061,0.109,0.123,0.163,0.183
	c0.104-0.027,0.209-0.054,0.314-0.083c0.077-0.087,0.155-0.175,0.232-0.264c0.131-0.034,0.26-0.069,0.391-0.104
	c-0.021-0.07-0.042-0.142-0.063-0.212c0.009-0.086,0.019-0.173,0.027-0.26C23.106,44.5,23.209,44.395,23.312,44.289z"/>
<path opacity="0.25" fill="#8EC549" d="M28.891,44.585c0.132-0.039,0.495,0.053,0.579,0.16c0.083,0.107,0.119,0.139,0.302-0.045
	c0.185-0.186,0.024-0.249,0.477-0.405c0.454-0.157,0.621-0.317,0.094-0.337c-0.526-0.023-0.45-0.069-0.828-0.092
	s-0.67,0.177-0.727,0.057c-0.058-0.118,0.586-0.286,0.587-0.286c0,0,0.448-0.293,0.095-0.211c-0.355,0.083-1.026,0.12-0.707,0.026
	c0.318-0.094-0.254-0.11-0.253-0.11c-0.043-0.057-0.084-0.115-0.126-0.172c0,0-0.502,0.031-0.406-0.044
	c0.095-0.075-0.427-0.016-0.327-0.068c0.102-0.053,0.176-0.217,0.097-0.194c-0.079,0.023-0.601-0.038-0.936,0.083
	c-0.333,0.121-0.081,0.356,0.049,0.318c0.131-0.039,0.34,0.018,0.34,0.018s-0.281,0.105-0.359,0.128
	c-0.078,0.023-0.61,0.224-0.609,0.223c0.058-0.063,0.115-0.127,0.173-0.19c0.057-0.072,0.113-0.142,0.17-0.214
	c-0.013-0.052-0.025-0.103-0.038-0.155c-0.163,0.056-0.326,0.11-0.487,0.165c-0.136,0.046-0.271,0.093-0.406,0.14
	c-0.086,0.056-0.173,0.112-0.259,0.168c0.056-0.102,0.111-0.206,0.168-0.309c-0.096,0.091-0.191,0.181-0.287,0.271
	c-0.091,0.076,0.076,0.705-0.025,0.731c-0.101,0.029-0.353-0.202-0.353-0.202s0.168-0.186,0.201-0.267
	c0.033-0.08-0.323-0.191-0.323-0.192c-0.179,0.153-0.354,0.304-0.529,0.455c-0.103,0.083-0.205,0.167-0.307,0.249
	c0.016,0.088,0.031,0.177,0.047,0.264c0.151-0.034,0.303-0.067,0.455-0.102c-0.148,0.079-0.297,0.159-0.443,0.237
	c0.021,0.048,0.045,0.095,0.067,0.142c0.123-0.034,0.247-0.067,0.372-0.103c0,0,0.57-0.068,0.998-0.188
	c0.429-0.121,0.837-0.239,0.837-0.239c0.064-0.071,0.128-0.143,0.192-0.215c-0.001,0,0.577-0.006,0.673,0.148
	c0.094,0.154,0.477,0.133,0.513,0.279c0.037,0.147-0.093,0.294-0.317,0.383c-0.227,0.087-0.324,0.445-0.324,0.444
	c0,0,0.007,0.129-0.171,0.18c-0.178,0.051-0.532,0.043-0.646,0.118c-0.114,0.076-0.348,0.207-0.347,0.207
	c-0.001,0.001-0.382,0.452-0.109,0.376c0.272-0.078,0.182-0.116,0.355-0.165c0.172-0.048,0.864-0.395,1.007-0.072
	c0.141,0.323,0.5,0.24,0.659,0.216c0.158-0.024,0.641,0.027,0.625-0.032s0.383-0.131-0.021-0.29
	c-0.403-0.161-0.223-0.32,0.005-0.194c0.228,0.126,0.491,0.176,0.598-0.067c0.105-0.245,0.453-0.326,0.07-0.495
	c-0.38-0.17-0.405-0.274-0.405-0.273C28.616,44.843,28.759,44.624,28.891,44.585z"/>
<path opacity="0.25" fill="#8EC549" d="M30.58,48.764c-0.443,0.143-0.442,0.142-0.442,0.142c0.013,0.01,0.025,0.02,0.037,0.029
	c0,0-0.327,0.226-0.433,0.426c-0.105,0.199-0.226,0.345-0.395,0.428c-0.167,0.084-0.266,0.539-0.266,0.538
	c0.001,0-0.003,0.001,0.613-0.165c0.616-0.167,0.876-0.351,0.875-0.351c0.035,0.047,0.07,0.094,0.104,0.14
	c0.1,0.01,0.2,0.021,0.3,0.03c0,0,0.187-0.05,0.276-0.131s0.082-0.192,0.082-0.192c-0.028-0.023-0.055-0.047-0.082-0.071
	c-0.021-0.064-0.042-0.127-0.063-0.191c-0.012-0.066-0.023-0.133-0.035-0.199c0,0-0.328-0.022-0.496,0.081
	c-0.169,0.104-0.27,0.056-0.27,0.056c0.046-0.063,0.093-0.126,0.14-0.19c0,0-0.298,0.021-0.403,0.066
	C30.274,49.114,30.962,48.64,30.58,48.764z"/>
<path opacity="0.25" fill="#8EC549" d="M22.707,42.748c0.116-0.04,0.231-0.081,0.348-0.121c0.036,0.031,0.072,0.063,0.108,0.093
	c0.087-0.016,0.174-0.032,0.261-0.048c-0.015-0.086-0.029-0.173-0.045-0.26c-0.096-0.015-0.191-0.03-0.287-0.045
	c-0.093,0.026-0.187,0.052-0.28,0.078c-0.154,0.068-0.308,0.134-0.462,0.202c0.101-0.003,0.198-0.005,0.298-0.007
	C22.668,42.676,22.687,42.712,22.707,42.748z"/>
<path opacity="0.25" fill="#8EC549" d="M22.543,43.766c0.149-0.04,0.343-0.021,0.367-0.124s0.043-0.228,0.043-0.228
	c0.016-0.068,0.032-0.137,0.048-0.207c-0.141,0.014-0.28,0.029-0.421,0.042c0.007,0.055,0.014,0.11,0.021,0.164
	c0,0-0.053,0.28-0.104,0.197c-0.052-0.083-0.124-0.329-0.186-0.264c-0.063,0.066-0.258,0.311-0.257,0.311
	c0.047,0.068,0.095,0.135,0.141,0.202C22.195,43.859,22.395,43.806,22.543,43.766z"/>
<path opacity="0.25" fill="#8EC549" d="M21.104,44.942c0.111,0.018,0.222,0.035,0.333,0.053c0,0-0.077,0.249,0.212,0.173
	c0.29-0.075,0.25-0.202,0.25-0.202c0,0.001,0.353-0.137,0.469-0.192c0.116-0.053-0.055-0.355-0.056-0.356
	c0.074-0.02,0.147-0.039,0.222-0.059c-0.001,0,0.231-0.297,0.149-0.394c-0.083-0.097-0.345,0.188-0.469,0.221
	c-0.123,0.033-0.369,0.097-0.369,0.097c-0.063,0.056-0.124,0.112-0.187,0.167c-0.008,0.088-0.016,0.176-0.023,0.262
	c0,0,0,0-0.246-0.028C21.143,44.654,21.104,44.942,21.104,44.942z"/>
<path opacity="0.25" fill="#8EC549" d="M45.75,35.504c-0.577,0.118-1.027,0.263-1.164,0.309c-0.137,0.044-0.702,0.186-0.765,0.201
	c-0.06,0.014,0.3-0.162,0.004-0.206c-0.026-0.003-0.052-0.008-0.077-0.012c0.002-0.002,0.004-0.004,0.006-0.005
	c0,0-0.142-0.112-0.176-0.121c-0.034-0.008-0.218-0.008-0.218-0.008c-0.071-0.027-0.145-0.054-0.216-0.082
	c0.001,0-0.286,0.096-0.339,0.1c-0.053,0.003-0.233,0.011-0.299,0.011c-0.065-0.002-0.325-0.009-0.325-0.009
	c-0.086,0.044-0.173,0.089-0.258,0.134c-0.021-0.023-0.041-0.046-0.06-0.069c-0.068,0.019-0.136,0.037-0.203,0.055
	c-0.104,0.014-0.21,0.026-0.314,0.041c-0.063,0.026-0.125,0.051-0.188,0.077c-0.001-0.005-0.003-0.011-0.004-0.016
	c-0.06,0.011-0.117,0.022-0.177,0.034c-0.083,0.031-0.167,0.063-0.25,0.094c-0.098,0.03-0.197,0.059-0.295,0.088
	c-0.024-0.014-0.049-0.028-0.074-0.042c-0.091,0.011-0.183,0.021-0.273,0.033c-0.092,0.048-0.184,0.096-0.274,0.145
	c-0.057,0.028-0.112,0.057-0.168,0.084c-0.038-0.01-0.075-0.021-0.114-0.032c-0.12,0.031-0.241,0.062-0.362,0.091
	c-0.035,0.041-0.07,0.082-0.106,0.123c-0.027-0.011-0.054-0.021-0.082-0.032c-0.097,0.022-0.193,0.044-0.291,0.065
	c-0.05,0.042-0.1,0.083-0.149,0.126c-0.074,0.05-0.147,0.102-0.221,0.152c-0.052-0.001-0.103-0.002-0.153-0.003
	c-0.106,0.033-0.212,0.067-0.318,0.101c-0.04,0.002-0.079,0.004-0.119,0.005c-0.076,0.073-0.153,0.146-0.23,0.219
	c-0.042,0.009-0.084,0.018-0.126,0.025c-0.056,0.032-0.111,0.064-0.166,0.097c-0.07,0.016-0.14,0.031-0.21,0.047
	c-0.02-0.012-0.039-0.024-0.06-0.036c-0.074,0.049-0.148,0.099-0.224,0.147c-0.106,0.047-0.214,0.094-0.32,0.142
	c-0.065,0.079-0.131,0.16-0.195,0.241c-0.108,0.042-0.216,0.083-0.325,0.125c0,0,0.254-0.158-0.344,0.007
	c-0.596,0.167-0.983,0.276-1.147,0.321c-0.163,0.047-0.631,0.305-0.663,0.367c-0.031,0.063-0.454,0.203-0.453,0.203
	c-0.005,0-1.661,0.765-1.309,0.716c0.349-0.048,0.523,0.095,0.064,0.229c-0.46,0.135-0.854,0.479-1.442,0.652
	c-0.588,0.173-0.905,0.53-0.381,0.374c0.525-0.155,1.163-0.308,1.164-0.308c-0.005,0.001-1.402,0.674-0.795,0.597
	c0.604-0.076,0.498,0.006,0.95-0.127c0.454-0.134,0.524-0.411,1.06-0.381c0.533,0.03,0.629-0.032,0.693,0.185
	c0.065,0.216,0.335,0.385,0.166,0.599c-0.169,0.214-0.542,0.359-0.542,0.359c0.001,0-0.054,0.245,0.319,0.101
	c0.375-0.145,0.595-0.422,0.638-0.321c0.044,0.102,0.35,0.318,0.35,0.318s-0.414-0.022-0.636,0.044
	c-0.222,0.065-0.485,0.226-0.225,0.245c0.26,0.019,0.694-0.063,0.755-0.081c0.062-0.019-0.054,0.24-0.212,0.303
	c-0.159,0.063-0.687,0.381-0.687,0.381s-0.471,0.365-0.344,0.717c0.125,0.35,0.207,0.417,0.275,0.611
	c0.069,0.194,0.023,0.601,0.232,0.657c0.209,0.058,0.241,0.181,0.56,0.146c0.317-0.036,0.519-0.111,0.579-0.13
	c0.062-0.018,0.129,0.066,0.255,0.118c0.126,0.05,0.248,0.014,0.601-0.092c0.096-0.088,0.191-0.176,0.287-0.264
	c0.114-0.152,0.292-0.491,0.292-0.491s0.188-0.221,0.115-0.321c-0.072-0.099-0.003,0.077,0.368-0.231
	c0.371-0.309,0.449-0.363,0.411-0.503c-0.04-0.141-0.146-0.202-0.062-0.227c0.084-0.025,0.189-0.227,0.529-0.328
	c0.341-0.102,0.212,0.105,0.869-0.291c0.659-0.396,0.656-0.41,0.966-0.641c0.31-0.23,0.007-0.219,0.447-0.41
	c0.44-0.191,0.404-0.15,0.864-0.36c0.46-0.211,0.627-0.367,0.825-0.424c0.197-0.057,0.887-0.455,1.514-0.737
	c0.629-0.283,0.506-0.217,0.395-0.187c-0.11,0.031-1.03,0.163-1.296,0.223c-0.267,0.059,0.182-0.253,0.181-0.253
	c0,0,0.313-0.211,0.367-0.117c0.055,0.093,0.176,0.167,0.572,0.058c0.396-0.111,0.645-0.224,0.368-0.317
	c-0.273-0.095-0.251-0.101-0.438-0.158c-0.186-0.058-0.225-0.032-0.486-0.038c-0.261-0.007-0.529-0.044-0.421-0.072
	c0.108-0.031,0.353-0.144,0.698-0.236c0.345-0.093,0.453-0.122,0.626-0.167c0.173-0.046,0.44-0.025,0.432-0.115
	c-0.006-0.059-0.145-0.069-0.265-0.063c0.159-0.031,0.396-0.093,0.526-0.19c0.223-0.165,0.426-0.309,0.127-0.232
	c-0.299,0.077,0.206-0.206,0.205-0.206c0,0,0.161-0.255-0.283-0.145c-0.444,0.113-0.817,0.02-0.312-0.108
	c0.507-0.126,0.843-0.268,0.728-0.271c-0.116-0.002-0.755-0.018-0.755-0.018c-0.001,0-0.046-0.085,0.673-0.411
	c0.714-0.321,0.795-0.563,0.978-0.604c0.183-0.04,0.322-0.13,0.577-0.198s0.372-0.196,0.372-0.196
	C46.349,35.503,46.324,35.388,45.75,35.504z"/>
<path opacity="0.25" fill="#8EC549" d="M44.971,39.939c-0.269,0.15-0.27,0.091-0.521,0.161c-0.251,0.071-0.364,0.103-0.502,0.203
	c-0.136,0.099-0.337,0.171-0.519,0.224c-0.182,0.052-0.105-0.076-0.296-0.112c-0.189-0.038-0.896,0.408-0.775,0.465
	c0.121,0.056,0.379-0.125,0.696-0.217c0.318-0.091-0.014,0.095-0.082,0.114c-0.067,0.021-0.464,0.301-0.464,0.302
	c0.191-0.025,0.384-0.052,0.578-0.078c-0.08,0.078-0.159,0.156-0.239,0.235c0,0,0.452-0.146,0.567-0.119
	c0.114,0.027,0.466,0,0.676-0.06c0.209-0.061,0.442-0.127,0.441-0.187c-0.001-0.06,0.491-0.305,0.876-0.443
	c0.384-0.14,0.633-0.491,0.633-0.49C45.895,39.755,45.236,39.79,44.971,39.939z"/>
<path opacity="0.25" fill="#8EC549" d="M23.211,43.656c0,0,0.294-0.105,0.401-0.111c0.106-0.006,0.32-0.113,0.32-0.113
	s0.009-0.267-0.117-0.232c-0.127,0.035-0.393,0.157-0.393,0.157C23.353,43.457,23.281,43.557,23.211,43.656z"/>
<path opacity="0.25" fill="#8EC549" d="M24.664,58.726c0,0-0.542-0.166-1.235-0.281c-0.693-0.116-0.695-0.021-0.881-0.079
	c-0.184-0.057-0.168-0.076-0.436-0.007c-0.266,0.069-0.489,0.238-0.564,0.332c-0.074,0.093-0.029,0.146-0.029,0.146
	c0.063-0.013,0.478-0.267,0.61-0.277c0.132-0.011,0.117,0.117,0.285,0.084s0.413-0.05,0.527,0.006
	c0.115,0.056,0.312-0.077,0.312-0.077s0.188,0.121,0.144,0.178c-0.045,0.056,0.237,0.017,0.237,0.017s0.05,0.116-0.008,0.144
	C23.567,58.937,24.359,58.895,24.664,58.726z"/>
<path opacity="0.25" fill="#8EC549" d="M43.545,63.879c-0.247-0.184,0.067-0.363-0.336-0.334c-0.399,0.028-0.249,0.146-0.851,0.006
	c-0.598-0.141-0.877-0.258-1.035-0.302c-0.159-0.044-0.699-0.25-0.928-0.244c-0.229,0.006-0.327,0.014-0.569,0.035
	c-0.242,0.021-0.428,0.092-0.625,0.053c-0.195-0.037-0.605-0.19-0.928,0.095c-0.05,0.045-0.085,0.079-0.111,0.106
	c-0.025-0.081-0.066-0.207-0.112-0.289c-0.071-0.127-0.097-0.126-0.537-0.19c-0.44-0.065-0.701-0.119-0.92-0.138
	c-0.218-0.018-0.384,0.053-0.45,0.138c-0.023,0.031-0.056,0.067-0.087,0.102c0.045-0.065,0.073-0.146,0.003-0.211
	c-0.14-0.132-0.304-0.101-0.451-0.085c-0.149,0.015-0.497,0.026-0.496,0.026c-0.001-0.001-0.275-0.102-0.06-0.189
	c0.218-0.087,0.247-0.117,0.158-0.236c-0.087-0.121,0.049-0.032-0.309-0.122c-0.354-0.088-0.249-0.139-0.384-0.264
	c-0.132-0.126-0.39-0.323-0.39-0.323c-0.058-0.015-0.117-0.028-0.175-0.043c-0.023-0.005-0.048-0.01-0.071-0.016
	c-0.003-0.002-0.838-0.223-1.009-0.199c-0.021,0.003-0.043,0.004-0.067,0.005c-0.177,0.007-0.432-0.026-0.665,0.004
	c-0.265,0.035-0.45,0.062-0.45,0.062s-0.017-0.007-0.043-0.017c-0.116-0.049-0.439-0.173-0.554-0.147
	c-0.142,0.032-0.466-0.383-0.728-0.331c-0.009,0.001-0.017,0.002-0.026,0.004c-0.256,0.043-0.543-0.004-0.543-0.004
	s0.256-0.171,0.118-0.221c-0.139-0.051-0.129,0.007-0.393-0.036c-0.265-0.043-0.665-0.074-0.373-0.119
	c0.291-0.046,0.208-0.068,0.208-0.068c-0.265,0.017-0.525,0.035-0.784,0.053c0,0-0.101,0.17-0.224,0.213
	c-0.124,0.043-0.297-0.093-0.528-0.056c-0.229,0.038-0.21,0.116-0.424,0.151c-0.211,0.034-0.254-0.097-0.254-0.097
	s-0.099-0.101-0.211-0.081c-0.113,0.02-0.385,0.065-0.496,0.084c-0.111,0.02-0.449,0.25-0.248,0.355
	c0.2,0.104,0.376,0.227,0.217,0.254s-0.348,0.023-0.395-0.12c-0.048-0.142,0.145-0.279,0.007-0.359
	c-0.068-0.04-0.105-0.066-0.115-0.087c-0.008-0.021,0.01-0.038,0.048-0.062c0.081-0.049,0.171-0.111,0.171-0.111
	s0.095-0.132-0.112-0.061c-0.205,0.07-0.205,0.07-0.27,0.15c-0.066,0.081-0.1,0.155-0.255,0.183
	c-0.155,0.028-0.184,0.078-0.175,0.135c0.008,0.056-0.056,0.102-0.056,0.102s-0.132-0.183-0.196-0.103
	c-0.063,0.08-0.32,0.138-0.269,0.255s0.127,0.289,0.127,0.289s-0.42,0.099-0.345,0.271c0.075,0.173-0.123,0.325-0.123,0.325
	c0.001,0,0.199-0.374-0.126-0.442c-0.326-0.067-0.298-0.12-0.536-0.063c-0.237,0.055-0.188,0.208-0.354,0.238
	c-0.059,0.012-0.091,0.03-0.125,0.046c-0.063,0.026-0.133,0.039-0.378-0.043c-0.336-0.11-0.346-0.09-0.385-0.182
	c-0.055-0.021-0.206-0.075-0.264-0.064c-0.07,0.015-0.089-0.02-0.224,0.007c-0.126,0.024-0.333,0.022-0.355,0.053
	c0.071,0.12,0.187,0.34,0.448,0.34c0.355-0.001,0.33,0.015,0.46,0.094c0.131,0.08,0.195,0.079,0.361,0.047
	c0.165-0.031,0.438-0.002,0.479,0.096c0.042,0.097,0.408,0.11,0.283-0.03c-0.066-0.072-0.126-0.079-0.152-0.085
	c-0.005-0.003-0.009-0.008-0.014-0.012c0.005-0.009,0.018-0.02,0.04-0.042c0.104-0.102,0.102-0.146,0.168-0.183
	c0.066-0.035,0.256-0.13,0.358-0.043c0.103,0.086,0.15,0.193,0.174,0.248s0.2,0.081,0.264,0.151
	c0.063,0.068,0.318,0.726,0.339,0.771c0.019,0.044,0.118,0.268-0.064,0.349c-0.182,0.081-0.265,0.083-0.194,0.206
	c0.069,0.121,0.132,0.072,0.069,0.121c-0.007,0.006-0.013,0.011-0.02,0.019c-0.05,0.056-0.08,0.158-0.149,0.171
	c-0.077,0.014-0.273,0.024-0.133,0.195c0.142,0.173,0.032,0.23,0.001,0.273c-0.032,0.043-0.085,0.077,0.006,0.25
	c0.09,0.171,0.16,0.375,0.36,0.287c0.199-0.085,0.104,0.122,0.103,0.2c0,0.034-0.103,0.057-0.092,0.087
	c-0.045,0.058-0.066,0.177,0.071,0.497c0.031,0.073-0.087,0.278,0.211,0.29c0.297,0.014,0.478,0.074,0.747,0.295
	c0.271,0.221,0.54,0.433,0.709,0.691c0.168,0.26,0.588,0.443,0.754,0.57c0.165,0.128,0.299,0.261,0.299,0.261
	s0.151,0.218,0.561,0.354c0.409,0.139,0.673,0.23,0.902,0.283c0.228,0.055,0.581-0.024,0.775,0.109
	c0.195,0.132,0.455,0.316,0.576,0.33c0.024,0.003,0.051,0.012,0.075,0.022c0.099,0.042,0.191,0.121,0.198,0.073
	c0.006-0.066,0.771,1.173,0.983,1.6c0.202,0.411,0.965,1.71,0.968,1.715c-0.001-0.002,0.534,0.674,0.34,0.604
	c-0.195-0.071,0.189,0.22,0.297,0.354c0.106,0.134,0.136,0.112,0.276,0.393c0.14,0.281,0.389,0.702,0.461,0.846
	c0.069,0.141,0.375,0.839,0.376,0.84c0,0-0.281,0.011,0.019,0.243c0.299,0.232,0.696,0.327,0.775,0.526
	c0.078,0.199-0.08,0.424,0.191,0.593c0.271,0.168,0.307,0.451,0.441,0.429c0.134-0.024,0.056,0.152,0.237,0.394
	c0.183,0.239,0.309,0.326,0.353,0.244c0.044-0.081-0.133-0.268-0.244-0.447c-0.109-0.18-0.201-0.361-0.08-0.329
	c0.121,0.033,0.322,0.269,0.355,0.335c0.034,0.065,0.172,0.258,0.311,0.452c0.138,0.192,0.236,0.431,0.236,0.431
	c-0.015,0.07-0.029,0.141-0.043,0.211c0,0-0.234-0.048-0.175,0.073c0.059,0.117,0.107,0.388,0.107,0.388s0.335-0.051,0.459-0.057
	c0.123-0.007,0.28-0.075,0.305-0.024c0.025,0.05,0.017,0.33-0.079,0.351c-0.096,0.02-0.087,0.338-0.087,0.338
	s0.389,0.313,0.526,0.376c0.137,0.064,0.532,0.257,0.574,0.343c0.001,0.002,0.002,0.003,0.002,0.006
	c0.02,0.009,0.067,0.043,0.178,0.141c0.304,0.269,0.507,0.333,0.507,0.333s0.078-0.057,0.214,0.044
	c0.134,0.098,0.374,0.152,0.374,0.152s0.068,0.095,0.142,0.114c0.074,0.02,0.278,0.044,0.278,0.044c0.001,0,0.509,0.207,0.584,0.188
	c0.077-0.019,0.363-0.088,0.549-0.061c0.184,0.027,0.482,0.027,0.599,0c0.095-0.022,0.444-0.092,0.563-0.115
	c0.025-0.004,0.041-0.006,0.041-0.006s0.151-0.086,0.21-0.099s0.205-0.063,0.31-0.068s0.32-0.051,0.32-0.051
	c0.106-0.062,0.214-0.122,0.322-0.183c-0.109,0.001-1.07,0.278-1.836-0.146c-0.771-0.434-0.414-0.315-0.871-0.504
	c-0.46-0.188-0.757-0.31-0.519-0.392c0.239-0.081,0.261,0.003,0.163-0.277c-0.097-0.279-0.176-0.351-0.033-0.411
	c0.143-0.06,0.262,0.093,0.079-0.272c-0.184-0.364-0.337-0.324-0.557-0.289c-0.218,0.036-0.441,0.021-0.654-0.188
	c-0.213-0.208-0.261-0.429,0.003-0.502c0.263-0.074,0.227-0.272,0.187-0.353c-0.041-0.078-0.318-0.074-0.146-0.285
	c0.174-0.21,0.382-0.269,0.109-0.334c-0.272-0.067-0.628-0.002-0.712-0.126c-0.085-0.123-0.754-0.34-0.264-0.388
	c0.492-0.045,0.774,0.121,0.845-0.037c0.069-0.156,0.164-0.184-0.067-0.339c-0.233-0.154-0.696-0.383-0.492-0.405
	c0.201-0.023,1.273-0.021,1.447-0.289c0.169-0.271,0.149-0.395,0.055-0.576c-0.096-0.182-0.201-0.127-0.467-0.294
	c-0.266-0.168,0.252-0.241-0.146-0.319c-0.396-0.079-0.69-0.055-0.774-0.174c-0.028-0.039-0.023-0.06,0.014-0.067
	c0.071-0.016,0.261,0.013,0.558,0.022c0.45,0.013,0.597,0.204,0.939,0.087c0.345-0.118,0.574-0.116,0.651-0.274
	c0.002-0.004,0.003-0.009,0.005-0.013c0.065-0.169-0.039-0.618-0.104-0.822c-0.065-0.21,0.005-0.469,0.005-0.469
	s0.221,0.063,0.202,0.245c-0.019,0.184,0.104,0.025,0.139-0.263c0.034-0.287-0.06-0.373,0.178-0.548
	c0.239-0.174,0.265-0.22-0.042-0.431c-0.305-0.211-0.762-0.398-0.594-0.569c0.168-0.169,0.425-0.489,0.562-0.598
	c0.133-0.107,0.601-0.463,0.938-0.445c0.333,0.018,1.07,0.009,1.073-0.035c0.002-0.044-0.321-0.21,0.009-0.22
	c0.33-0.011,0.303-0.111,0.303-0.111c-0.029-0.131-0.058-0.263-0.086-0.393c-0.001,0,0.149-0.254,0.086-0.369
	c-0.063-0.114-0.102-0.229-0.189-0.388c-0.088-0.156,0.137-0.136,0.043-0.352c-0.093-0.215-0.548-1.067-0.723-1.374
	c-0.177-0.309,0.188-0.139,0.308-0.073c0.119,0.067-0.052-0.04,0.04-0.261c0.09-0.221-0.021-0.273,0.028-0.377
	c0.051-0.104,0.203-0.169,0.445-0.326s0.446-0.344,0.251-0.68C43.945,64.227,43.793,64.063,43.545,63.879z"/>
<path opacity="0.25" fill="#8EC549" d="M38.562,80.132C38.53,80.115,38.581,80.173,38.562,80.132L38.562,80.132z"/>
<path opacity="0.25" fill="#8EC549" d="M78.529,66.065c-0.319-0.277-0.279-0.127-0.279-0.127s-0.1,0.284-0.107,0.399
	c-0.009,0.115-0.087,0.116-0.26,0.271c-0.171,0.158-0.282,0.218-0.426,0.374c-0.146,0.157-0.544,0.127-0.66,0.246
	c-0.117,0.119-0.501,0.224-0.648,0.363c-0.147,0.142-0.098,0.179-0.125,0.454c-0.028,0.277,0.051,0.295,0.188,0.53
	c0.139,0.237-0.149,0.143-0.365,0.408c-0.219,0.268-0.267,0.208-0.429,0.455c-0.165,0.248,0.052,0.265,0.152,0.343
	c0.1,0.079-0.026,0.227-0.103,0.414c-0.076,0.188-0.017,0.146,0.283,0.389s0.573-0.014,0.765-0.018
	c0.19-0.005,0.455-0.197,0.455-0.197c0.449-0.826,0.884-1.63,1.304-2.413c0.011-0.02,0.021-0.038,0.033-0.058
	c-0.034-0.236-0.05-0.372,0.215-0.378c0.265-0.004,0.093-0.156,0.093-0.156s-0.102-0.056-0.111-0.268
	c-0.009-0.213,0.259,0.071,0.341,0.032c0.083-0.041,0.074-0.273,0.043-0.578C78.856,66.249,78.851,66.344,78.529,66.065z"/>
<path opacity="0.25" fill="#8EC549" d="M18.577,44.678c0.187-0.066,0.919-0.149,0.66-0.063s-0.453,0.202-0.373,0.206
	c0.08,0.005,0.451-0.13,0.718-0.195c0.266-0.065,0.397-0.146,0.535-0.204c0.139-0.058,0.683-0.172,0.683-0.172
	c0.174-0.147,0.348-0.296,0.523-0.445c-0.177,0.03-0.354,0.061-0.531,0.09c0,0-0.008-0.19-0.132-0.158
	c-0.123,0.031-0.279,0.288-0.29,0.41c-0.014,0.123-0.569,0.12-0.569,0.119c0.098-0.047,0.196-0.095,0.295-0.145
	c-0.211,0.005-0.421,0.01-0.631,0.014c0.087-0.052,0.173-0.106,0.26-0.159c-0.03,0.018-0.266,0.158-0.349,0.133
	c-0.088-0.026,0.047-0.251,0.047-0.251s-0.271,0.14-0.475,0.164c-0.148,0.019-0.264,0.055-0.41,0.095
	c-0.112,0.119-0.225,0.237-0.335,0.356c0.019-0.009,0.04-0.019,0.053-0.024c0.139-0.056,0.405-0.047,0.251,0.036
	c-0.154,0.083-0.235,0.149-0.323,0.193C18.094,44.72,18.392,44.746,18.577,44.678z"/>
<path opacity="0.25" fill="#8EC549" d="M18.261,45.238c0,0-0.231-0.2-0.319-0.226c-0.06-0.018-0.199,0.065-0.334,0.133
	c-0.2,0.232-0.395,0.467-0.583,0.704c0.435-0.223,0.992-0.417,1.044-0.429C18.132,45.359,18.196,45.299,18.261,45.238z"/>
<path opacity="0.25" fill="#8EC549" d="M25.474,52.907c0.021-0.003,0.036-0.01,0.036-0.01S25.496,52.901,25.474,52.907z"/>
<path opacity="0.25" fill="#8EC549" d="M86.239,55.446c-0.077,0.032-0.188,0.059-0.35,0.063c0.137,0.12,0.272,0.24,0.407,0.36
	C86.278,55.729,86.261,55.587,86.239,55.446z"/>
<path opacity="0.25" fill="#8EC549" d="M21.714,61.515c-0.058-0.034-0.178-0.157-0.1-0.162c0.079-0.004,0.084-0.006,0.198,0.052
	c0.115,0.058,0.158,0.083,0.284,0.115c0.127,0.033,0.261,0.044,0.222-0.036s-0.076-0.131-0.029-0.275
	c0.047-0.146-0.058-0.292-0.044-0.362s0.008-0.186,0.008-0.186c-0.025-0.063-0.091-0.13-0.153-0.185
	c-0.075-0.066-0.147-0.115-0.147-0.115s-0.144-0.074-0.553,0.02c-0.409,0.093-0.449,0.191-0.604,0.166
	c-0.021-0.003-0.041-0.003-0.063-0.001c-0.116,0.011-0.233,0.087-0.215,0.034c0.004-0.011,0.013-0.027,0.029-0.05
	c0.111-0.157,0.095-0.042,0.146-0.231c0.05-0.188-0.021-0.129,0.058-0.324c0.039-0.094,0.063-0.131,0.071-0.163
	c0.008-0.033-0.005-0.064-0.042-0.153c-0.072-0.174-0.045-0.224,0.01-0.323c0.054-0.1,0.208-0.307-0.175-0.23
	c-0.383,0.077-0.964,0.183-0.884,0.377s0.078,0.306-0.04,0.407c-0.12,0.103-0.157,0.166-0.11,0.201
	c0.046,0.035,0.04,0.137-0.152,0.064c-0.19-0.072-0.282,0.137-0.582,0.198c-0.3,0.063-0.183-0.13-0.394-0.086
	c-0.211,0.043-0.158,0.055-0.307-0.071c-0.149-0.126-0.372-0.146-0.467-0.374c-0.093-0.228-0.117-0.602-0.173-0.813
	c-0.057-0.213,0.063-0.236,0.045-0.321c-0.005-0.022-0.008-0.048-0.011-0.076c-0.007-0.078-0.009-0.175-0.033-0.261
	c-0.033-0.116-0.071-0.21,0.216-0.343c0.286-0.134,0.211-0.041,0.32-0.207c0.108-0.166-0.222-0.136,0.26-0.228
	c0.479-0.094,0.419-0.081,0.598-0.116s0.237-0.124,0.371-0.072c0.135,0.05,0.242,0.118,0.37,0.005
	c0.129-0.114,0.053-0.221,0.053-0.221s-0.213-0.125,0.354-0.148c0.565-0.023,0.467-0.26,0.648-0.128
	c0.182,0.129,0.275,0.199,0.378,0.101c0.104-0.098,0.044-0.24,0.217-0.132c0.173,0.11,0.426,0.104,0.416,0.193
	c-0.011,0.09,0.009,0.098,0.081,0.238c0.075,0.141,0.139,0.293,0.32,0.423c0.183,0.129,0.346,0.328,0.449,0.075
	c0.103-0.253,0.139-0.127,0.004-0.454c-0.137-0.327-0.301-0.571-0.314-0.603c-0.012-0.031-0.332-0.298,0.062-0.637
	c0.396-0.341,0.412-0.424,0.638-0.55c0.227-0.127,0.236-0.062,0.342-0.208c0.105-0.148,0.064-0.208,0.156-0.228
	c0.091-0.02,0.035-0.076,0.111-0.093s0.177-0.096,0.177-0.096c-0.018-0.046-0.035-0.092-0.053-0.137
	c-0.066,0.014-0.133,0.028-0.199,0.043c0.075-0.048,0.15-0.095,0.227-0.142c-0.027-0.041-0.054-0.081-0.081-0.12
	c0,0-0.248,0.042-0.191,0.019c0.057-0.024,0.243-0.101,0.214-0.176c-0.028-0.073-0.107-0.277-0.107-0.277s-0.094-0.459,0.059-0.106
	c0.151,0.352,0.109,0.499,0.261,0.245c0.152-0.255,0.066-0.354,0.065-0.354c0.058,0.003,0.113,0.006,0.171,0.009
	c-0.001,0,0.278-0.333,0.244-0.469c-0.033-0.135-0.072-0.102,0.244-0.211c0.318-0.109,0.445-0.235,0.572-0.266
	c0.096-0.022,0.247-0.059,0.315-0.074c-0.05,0.004-0.126-0.021-0.037-0.258c0.123-0.334,0.213-0.431,0.429-0.521
	c0.215-0.09,0.236-0.231,0.435-0.281c0.063-0.015,0.125-0.029,0.182-0.041c0.123-0.029,0.217-0.057,0.2-0.104
	c-0.014-0.038,0.013-0.079,0.067-0.12c0.041-0.03,0.099-0.061,0.168-0.09c0.16-0.065,0.271-0.169,0.386-0.212
	c0.113-0.041-0.366,0.171-0.488,0.389c-0.123,0.219,0.086,0.451,0.264,0.233c0.179-0.22,0.146-0.212,0.364-0.268
	c0.221-0.056,0.377-0.196,0.531-0.236c0.154-0.039,0.463-0.245,0.532-0.264c0.07-0.018,0.221-0.134,0.379-0.291
	c0.159-0.157,0.046-0.205-0.127-0.146c-0.172,0.059,0.021-0.225-0.049-0.207c-0.071,0.02-0.268,0.175-0.257,0.262
	c0.011,0.087-0.164,0.133-0.212,0.159c-0.049,0.025-0.197,0.09-0.359,0.105c-0.163,0.017-0.43,0.049-0.441-0.038
	c-0.01-0.087-0.058-0.229,0.046-0.307c0.104-0.079,0.108-0.067,0.184-0.178c0.076-0.11,0.354-0.406,0.009-0.314
	c-0.344,0.091-0.456,0.031-0.738,0.182c-0.28,0.152-0.471,0.344-0.604,0.377c-0.075,0.02-0.233,0.192-0.376,0.346
	c-0.085,0.092-0.164,0.176-0.219,0.22c-0.018,0.015-0.034,0.025-0.047,0.03c-0.11,0.04-0.203-0.025-0.203-0.025
	s0.091-0.098,0.25-0.201c0.161-0.104,0.191-0.228,0.37-0.337c0.18-0.111,0.172-0.135,0.277-0.201
	c0.104-0.065,0.27-0.174,0.271-0.174c-0.001,0,0.156-0.08,0.212-0.134c0.057-0.054-0.017-0.166,0.12-0.201
	c0.135-0.036,0.624-0.193,0.836-0.238c0.212-0.042,0.565-0.192,0.676-0.209c0.109-0.016,0.406-0.111,0.497-0.136
	c0.089-0.024,0.139-0.051,0.339-0.227c0.2-0.176,0.146-0.215,0.651-0.383c0.506-0.169,0.64-0.208,0.646-0.385
	c0.006-0.179,0.039-0.272-0.036-0.32c-0.075-0.047-0.275,0.092-0.321-0.06c-0.046-0.153-0.197-0.054-0.381,0.068
	c-0.184,0.12-0.32,0.255-0.484,0.301c-0.163,0.046-0.432-0.001-0.136-0.126c0.297-0.125,0.362-0.172,0.553-0.268
	c0.192-0.095,0.132-0.092,0.31-0.171s0.171-0.104-0.122-0.077c-0.292,0.027-0.2,0.071-0.468,0.036
	c-0.268-0.035-0.521-0.033-0.501-0.165c0.021-0.133,0.098,0,0.144-0.253c0.047-0.25-0.437-1.007-0.437-1.012
	c0,0.001-0.214,0.37-0.503,0.581c-0.29,0.213-0.505,0.33-0.553,0.43c-0.048,0.099-0.139,0.181-0.216,0.046
	c-0.077-0.134-0.146-0.116-0.221-0.108c-0.074,0.005-0.552,0.126-0.064-0.227c0.49-0.356,0.245-0.214,0.211-0.335
	s-0.184-0.109-0.342-0.064c-0.159,0.045-0.234-0.021-0.286-0.14c-0.051-0.118-0.246-0.137-0.519-0.03
	c-0.271,0.105-0.438,0.24-0.574,0.218c-0.137-0.021-0.576-0.062-0.56,0.242c0.016,0.303-0.176,0.338-0.139,0.46
	c0.035,0.12,0.085,0.22-0.085,0.266c-0.169,0.045-0.597,0.358-0.301,0.491c0.293,0.133,0.313,0.142,0.291,0.299
	c-0.02,0.158-0.117,0.573-1.163,1.025c0,0-0.034,0.37,0.031,0.51c0.065,0.142,0.038,0.163-0.114,0.279
	c-0.151,0.115-0.086,0.203-0.262,0.246c-0.175,0.042-0.212,0.129-0.299-0.019c-0.086-0.148-0.139-0.004-0.15-0.186
	c-0.012-0.18-0.153-0.092,0.051-0.301s-0.014-0.089,0.112-0.279c0.125-0.191,0.128-0.287,0.048-0.267
	c-0.081,0.021-0.799,0.155-0.798,0.154c0,0-0.141-0.155-0.396-0.094c-0.254,0.061-0.524-0.215-0.843-0.143
	c-0.316,0.074-0.571,0.171-0.571,0.171s0.175-0.27,0.119-0.422c-0.056-0.153-0.413-0.045-0.412-0.045
	c-0.003,0.009,0.594-1.254,1.516-1.489c0.146-0.035,0.452-0.347,0.119-0.278c-0.333,0.068,0.202-0.139,0.381-0.199
	c0.178-0.06,0.102-0.07,0.351-0.133c0.25-0.065-0.106,0.117,0.315-0.141c0.425-0.26,0.508-0.297,0.485-0.366
	c-0.021-0.07-0.304,0.08-0.479,0.036c-0.179-0.044-0.259-0.069-0.259-0.069s0.219-0.057,0.358-0.078
	c0.139-0.021,0.277-0.042,0.374-0.083c0.098-0.041,0.094,0.005,0.123-0.139c0.029-0.145,0.004-0.169,0.191-0.22
	c0.188-0.05,0.205-0.116,0.41-0.11c0.205,0.006-0.013-0.042,0.292-0.079c0.305-0.038-0.018,0.005,0.372-0.195
	c0.393-0.202,0.599-0.212,0.523-0.347c-0.075-0.136-0.47,0.006-0.173-0.219c0.298-0.226,0.46-0.193,0.396-0.286
	s-0.378-0.132-0.466-0.107c-0.088,0.024-0.201-0.041-0.387,0.107c-0.187,0.147-0.153,0.329-0.241,0.417
	c-0.088,0.087-0.208,0.057-0.331,0.216c-0.121,0.158-0.233,0.157-0.353,0.252c-0.121,0.094-0.01,0.095-0.12,0.094
	c-0.111-0.001-0.287-0.093-0.068-0.168c0.218-0.074,0.46-0.14,0.253-0.272c-0.206-0.133-0.392-0.193-0.524-0.015
	c-0.133,0.177-0.229,0.281-0.264,0.228c-0.036-0.053-0.103-0.399-0.175-0.27c-0.071,0.13-0.344,0.202-0.487,0.334
	c-0.142,0.131-0.379,0.192-0.475,0.294c-0.094,0.103-0.199,0.222-0.282,0.304c-0.081,0.083-0.023,0.205-0.089,0.222
	c-0.067,0.017-0.137,0.187-0.193,0.017c-0.057-0.169-0.12-0.2-0.287-0.158c-0.167,0.041-0.399,0.098-0.482,0.117
	c-0.083,0.02-0.133,0.033-0.322,0.107c-0.188,0.077-0.455,0.184-0.455,0.184s-0.162-0.206-0.477-0.134s-0.507,0.084-0.612,0.183
	c-0.105,0.101-0.232,0.189-0.229,0.293c0.004,0.104,0.02,0.236-0.078,0.213c-0.099-0.024-0.07-0.089-0.194-0.184
	c-0.126-0.093-0.065-0.122-0.33-0.066c-0.263,0.058-1.032,0.317-1.032,0.316s-0.144-0.046,0.169-0.155
	c0.313-0.107,0.368-0.375-0.129-0.275c-0.499,0.1-0.574,0.219-0.731,0.144c-0.006-0.002-0.011-0.004-0.017-0.006
	c-2.329,3.326-3.647,7.054-3.681,10.992c0,0.057,0,0.113,0.001,0.17c0.144,0.061,0.14,0.172,0.217,0.306
	c0.097,0.169,0.132,0.372,0.27,0.428c0.137,0.055,0.309-0.012,0.353,0.084c0.043,0.096,0.286,0.188,0.41,0.221
	c0.124,0.034-0.008,0.025,0.103,0.152c0.111,0.129,0.208,0.019,0.418,0.171c0.211,0.154,0.761,0.237,0.856,0.468
	c0.098,0.231,0.122,0.249,0.069,0.374c-0.053,0.126-0.189,0.224-0.004,0.288c0.187,0.063,0.727,0.28,0.888,0.257
	c0.163-0.023,0.463-0.042,0.463-0.042s0.616,0.142,0.864,0.18c0.249,0.037,0.156,0.058,0.419,0.046
	c0.262-0.01,0.627,0.082,0.665-0.027c0.038-0.11,0.167-0.239,0.329-0.24c0.163,0,0.569,0.241,0.661,0.269
	c0.021,0.006,0.06,0.017,0.111,0.028c0.11,0.026,0.277,0.061,0.443,0.079c0.132,0.014,0.262,0.018,0.361-0.003
	c0.282-0.059,0.185,0.019,0.467-0.039c0.069-0.015,0.113-0.013,0.142-0.001c0.02,0.006,0.031,0.019,0.041,0.03
	c0.037,0.051,0.029,0.136,0.139,0.167c0.183,0.054,0.429,0.142,0.497,0.15c0.007,0.002,0.014,0.007,0.022,0.017
	C21.688,61.555,21.76,61.544,21.714,61.515z"/>
<path opacity="0.25" fill="#8EC549" d="M86.22,55.327c-0.933-5.812-4.677-11.035-10.271-15.007
	c-0.131,0.051-0.244,0.184-0.244,0.184c-0.207-0.027-0.418-0.052-0.628-0.078c-0.049,0.045-0.098,0.09-0.15,0.136
	c-0.158,0.005-0.316,0.011-0.475,0.016c0,0,0.157-0.089,0.166-0.229c0.01-0.139-0.321-0.073-0.403-0.051
	c-0.082,0.021-0.293,0.11-0.293,0.11s-0.28,0.019-0.44,0.085c-0.159,0.066-0.409,0.291-0.409,0.291
	c-0.027,0.067-0.055,0.134-0.084,0.202c0,0.001-0.558,0.035-0.713-0.059c-0.155-0.093-0.349-0.256,0.049-0.249
	c0.396,0.008-0.099-0.276-0.441-0.282c-0.341-0.006-0.426-0.006-0.326,0.268c0.1,0.275,0.457,0.394,0.477,0.529
	c0.021,0.136-0.134,0.042-0.134,0.042s-0.162-0.137-0.362-0.142c-0.197-0.003-0.707,0.188-0.773,0.297
	c-0.069,0.109,0.355,0.296,0.222,0.338c-0.136,0.041-0.624-0.015-0.873-0.153c-0.25-0.139-0.618,0.052-0.138,0.218
	c0.479,0.165,0.34,0.359,0.12,0.221c-0.219-0.136-0.405-0.229-0.519-0.232c-0.113-0.003-0.347-0.03-0.347-0.03
	s0.071-0.086-0.123-0.245c-0.198-0.159-0.105-0.291-0.105-0.291s-0.322-0.052-0.575-0.192c-0.252-0.139,0.076-0.065,0.191-0.062
	c0.113,0.002,0.66,0.194,1.149,0.228c0.488,0.033,1.158-0.042,1.126-0.244c-0.034-0.204-0.294-0.413-0.641-0.443
	c-0.345-0.03-0.546-0.034-0.807-0.22c-0.257-0.187-0.697-0.242-1.1-0.25c-0.403-0.008-0.497-0.056-0.623-0.126
	c-0.128-0.07-0.653,0.055-0.653,0.055s-0.267-0.209-0.15-0.208c0.115,0.002,0.115,0.002,0.115,0.002s-0.148-0.025-0.276-0.097
	c-0.128-0.07-0.455-0.122-0.455-0.122c-0.012,0.037-0.024,0.075-0.038,0.112c-0.024-0.084-0.049-0.167-0.073-0.251
	c-0.088,0.044-0.176,0.087-0.267,0.132c-0.074,0.066-0.148,0.132-0.225,0.199c-0.003-0.075-0.008-0.152-0.011-0.227
	c-0.094,0.066-0.188,0.132-0.283,0.198c0.021-0.097,0.043-0.194,0.064-0.293c0,0-0.154-0.048-0.405,0.015
	c-0.249,0.063-0.345,0.174-0.333,0.241c0.013,0.068-0.174-0.003-0.262-0.005c-0.088-0.001-0.344,0.037-0.344,0.037
	s-0.02,0.045-0.254,0.04c-0.234-0.005-0.4-0.121-0.381-0.008c0.021,0.111-0.266,0.148-0.35,0.169c-0.083,0.02-0.1,0.263-0.1,0.263
	s-0.431,0.055-0.527,0.009c-0.096-0.047-0.194,0.061-0.197,0.213c-0.003,0.152-0.176,0.169-0.262,0.188
	c-0.085,0.02-0.319,0.208-0.319,0.208c-0.026,0.078-0.052,0.157-0.079,0.234c0,0-0.051,0.235-0.166,0.252s-0.316,0.246-0.467,0.241
	c-0.149-0.005-0.2,0.248-0.318,0.244c-0.12-0.004-0.181-0.007-0.271-0.01c-0.09-0.003-0.541-0.02-0.541-0.02
	s-0.021,0.274-0.104,0.313c-0.086,0.039-0.146,0.037-0.349,0.091c-0.204,0.056-0.355,0.049-0.347,0.113
	c0.009,0.063,0.149,0.193,0.149,0.193c0.192,0.015,0.386,0.029,0.579,0.044c-0.24,0.004-0.482,0.009-0.725,0.013
	c0.038,0.119,0.075,0.239,0.109,0.357c0.156-0.042,0.313-0.083,0.469-0.126c-0.116,0.114-0.23,0.227-0.347,0.339
	c0.093,0.101,0.188,0.201,0.283,0.3c0,0-0.008,0.165,0.563,0.127c0.571-0.038,0.635-0.201,0.755-0.217
	c0.116-0.016,0.276-0.363,0.329-0.195c0.049,0.15,0.055,0.167,0.266,0.177c0.027,0.001,0.057,0.003,0.091,0.003
	c0.3,0.012-0.373,0.111-0.026,0.228c0.347,0.117,0.255,0.114,0.448,0.41c0.191,0.296,0.106,0.333,0.118,0.415
	c0.011,0.082,0.148,0.21,0.329,0.218c0.18,0.007,0.265-0.029,0.281-0.111c0.02-0.082,0.258-0.071,0.468-0.063
	c0.208,0.008,0.41-0.024,0.342-0.295c-0.07-0.271-0.02-0.518-0.02-0.518c0.001,0,0.771-0.159,0.646-0.394
	c-0.125-0.235-0.613-0.168-0.771-0.618c-0.16-0.449,0.423-0.474,0.747-0.634c0.323-0.161,0.532-0.306,0.532-0.306
	s-0.333-0.076-0.172-0.157c0.161-0.082,0.172-0.19,0.317-0.187c0.148,0.004,0.428-0.053,0.515-0.05
	c0.021,0.001,0.075,0.002,0.142,0.009c0.205,0.016,0.537,0.057,0.463,0.139c-0.098,0.106-0.025,0.195-0.113,0.193
	c-0.087-0.002-0.716,0.39-0.718,0.39c0,0-0.445,0.115-0.316,0.375c0.129,0.26,0.265,0.561,0.265,0.56c0,0,0.014,0.085,0.191,0.113
	c0.178,0.028,0.314,0.158,0.461,0.164s0.438,0.015,0.523,0.018c0.089,0.003,0.371-0.03,0.458-0.027
	c0.087,0.003,0.206,0.029,0.289,0.01c0.084-0.018,0.207-0.142,0.207-0.142c0.038,0.001,0.075,0.002,0.113,0.004
	c0.069,0.002,0.138,0.004,0.206,0.007c0.107,0.024,0.218,0.049,0.325,0.074c-0.107,0.046-0.214,0.092-0.322,0.138
	c-0.053,0.027-0.106,0.053-0.159,0.079c-0.355-0.004-0.711-0.009-1.066-0.014c0,0-0.747,0.227-0.253,0.431
	c0.089,0.037,0.162,0.075,0.223,0.114c0.268,0.173,0.238,0.342,0.052,0.353c-0.23,0.012-0.308-0.114-0.308-0.114
	s-0.309-0.323-0.674-0.232c-0.364,0.091-0.334,0.113-0.098,0.328c0.237,0.215,0.022,0.145,0.123,0.231
	c0.102,0.086-0.094,0.162,0.065,0.249c0.072,0.039-0.027,0.072-0.134,0.102c-0.132,0.039-0.278,0.074-0.127,0.113
	c0.272,0.072-0.606,0.059-0.606,0.059c-0.087-0.058-0.174-0.116-0.26-0.173c0,0-0.433,0.064-0.662,0.116s-0.694,0.134-0.694,0.134
	c-0.035-0.008-0.072-0.015-0.109-0.024c-0.075-0.017-0.153-0.034-0.229-0.05c0.002,0-0.322-0.176-0.404-0.118
	s-0.318,0.088-0.439,0.083c-0.12-0.005-0.308-0.054-0.406-0.119c-0.1-0.065-0.331,0.006-0.299-0.195
	c0.033-0.202,0.068-0.16,0.297-0.253c0.229-0.092,0.289-0.089,0.188-0.176c-0.102-0.086-0.36,0.006-0.289-0.135
	c0.069-0.141,0.229-0.278,0.079-0.285c-0.15-0.006-0.299,0.009-0.408,0.086c-0.109,0.078-0.224,0.134-0.224,0.134
	s-0.362,0.006-0.352,0.088c0.013,0.083-0.002,0.204,0.039,0.287c0.042,0.084,0.38,0.343,0.38,0.343s-0.058,0.262-0.181,0.256
	c-0.116-0.005,0.045,0.02-0.506,0.12c-0.027,0.005-0.055,0.011-0.087,0.016c-0.661,0.112-0.716-0.072-0.901,0.181
	c-0.187,0.254,0.003,0.302-0.458,0.341c-0.021,0.002-0.04,0.004-0.058,0.006c-0.392,0.04-0.246,0.104-0.332,0.158
	c-0.052,0.033-0.218,0.047-0.341,0.075c0.028-0.021,0.016-0.047-0.075-0.084c-0.296-0.119-0.468,0.054-0.296-0.119
	c0.17-0.172,0.272-0.107,0.351-0.255c0.078-0.146,0.169-0.157-0.023-0.211c-0.193-0.054-0.411,0.117-0.588,0.019
	c-0.176-0.099,0.067-0.042-0.049-0.244c-0.115-0.202,0.021-0.225-0.228-0.358c-0.25-0.133-0.36-0.063-0.36-0.063
	c0.002,0,0.182-0.294-0.255-0.406c-0.438-0.111-0.622-0.044-0.622-0.044s0.023-0.029,0.414-0.133
	c0.39-0.104,0.389-0.318,0.389-0.318s-0.457-0.097-0.646-0.105c-0.189-0.009-0.342,0.121-0.37,0.074
	c-0.028-0.046,0.03-0.167,0.19-0.22c0.159-0.054,0.314-0.14,0.314-0.14c-0.262-0.027-0.523-0.054-0.786-0.081
	c0,0-0.147,0.177-0.351,0.29c-0.204,0.112-0.244,0.186-0.233,0.293c0.009,0.107,0.396,0.156,0.396,0.156s-0.298,0.153-0.178,0.159
	c0.121,0.005,0.573-0.003,0.434,0.02c-0.142,0.024-0.351,0.089-0.351,0.089c0.097,0.005,0.191,0.01,0.288,0.014
	c0,0-0.392,0.18-0.295,0.184s0.549-0.035,0.549-0.035s0.206-0.065,0.224,0.102c0.017,0.168,0.197,0.312,0.197,0.312
	s0.364,0.063-0.055,0.179c-0.42,0.115-0.396,0.117-0.517,0.111c-0.122-0.006,0.308,0.211,0.166,0.249
	c-0.141,0.039-0.51-0.039-0.531,0.021c-0.019,0.059,0.184,0.16,0.33,0.167c0.146,0.006,0.478,0.203,0.697-0.027
	c0,0-0.122,0.234-0.44,0.204c-0.316-0.03-0.625,0.045-0.654,0.314c0,0,0.216-0.065,0.63-0.045c0.412,0.02,0.361-0.029,0.603-0.017
	c0.242,0.012,0.264-0.002,0.528,0.01c0.266,0.013,0.527,0.01,0.717,0.003c0.095-0.003,0.271-0.01,0.389-0.032
	c-0.03,0.015-0.05,0.031-0.047,0.053c0.009,0.1-0.006,0.259-0.164,0.251c-0.16-0.007-0.207,0.149-0.207,0.149
	s-0.376,0.082-0.613-0.068c-0.237-0.151-0.266-0.112-0.188,0.051c0.078,0.163,0.179,0.208-0.047,0.197s-0.451-0.001-0.451-0.001
	s-0.491-0.083-0.653-0.07c-0.162,0.011-0.146,0.231-0.14,0.312c0.007,0.079,0.22-0.108,0.596,0.107
	c0.375,0.216,0.646,0.386,0.686,0.447c0.036,0.062,0.114,0.204,0.126,0.361c0.014,0.159,0.143,0.577-0.052,0.568
	c-0.068-0.003-0.152,0.005-0.231,0.018c-0.149,0.021-0.285,0.058-0.285,0.058c-0.795-0.094-1.598-0.189-2.412-0.286
	c0.003,0-1.047,0.071-0.657,0.406c0,0,0.014,0.037,0.032,0.103c0.022,0.09,0.053,0.233,0.061,0.415
	c0.015,0.316-0.29,0.402-0.391,0.497c-0.099,0.093-0.231,0.287-0.059,0.293c0.174,0.008,0.228,0.502,0.228,0.502
	s-0.066,0.056,0.348,0.072c0.364,0.014,0.305,0.056,0.376,0.031c0.009-0.003,0.023-0.008,0.04-0.015
	c0.135-0.054,0.475-0.08,0.587,0.14c0.113,0.22,0.149,0.259,0.352,0.248c0.204-0.012,0.059-0.213,0.396-0.201
	c0.338,0.013,0.404-0.043,0.773-0.03c0.366,0.014,0.601,0.022,0.601,0.022s0.218-0.225,0.384-0.199
	c0.167,0.025,0.177-0.343,0.405-0.334c0.229,0.009-0.187-0.376,0.16-0.539c0.346-0.162,0.395-0.354,0.655-0.343
	c0.258,0.01,0.508-0.058,0.508-0.058c0.053-0.134,0.105-0.269,0.157-0.403c0,0-0.118-0.278,0.296-0.261
	c0.412,0.017,0.842,0.229,1.12,0.202c0.279-0.027,0.362-0.142,0.476-0.234c0.02-0.016,0.032-0.034,0.039-0.051
	c0.038-0.089-0.003-0.188,0.442-0.104c0.533,0.1,0.717,0.107,0.742,0.341c0.022,0.235-0.018,0.155,0.339,0.343
	c0.354,0.188,0.614,0.351,0.893,0.419c0.28,0.067,0.543-0.019,0.878,0.339c0.334,0.355,0.703,0.461,0.436,0.491
	c-0.267,0.029,0.077,0.173-0.405,0.158c-0.483-0.017-0.48,0.021-0.784,0.011c-0.306-0.01-0.42,0.082-0.322,0.161
	c0.1,0.081,1.094,0.358,1.092,0.358c0.061-0.111,0.121-0.223,0.183-0.335c0,0,0.328-0.007,0.437-0.137
	c0.108-0.129,0.188-0.24,0.366-0.234c0.178,0.006-0.203-0.272-0.328-0.334c-0.126-0.062,0.121-0.282,0.442-0.023
	s0.658,0.08,0.07-0.208c-0.594-0.288-0.801-0.258-0.894-0.299c-0.094-0.042-0.138-0.178-0.138-0.178
	c-0.154-0.038-0.308-0.076-0.461-0.113c-0.059-0.074-0.116-0.146-0.174-0.219c0,0-0.04-0.098-0.357-0.247
	c-0.318-0.147-0.481-0.25-0.481-0.25s-0.189-0.359,0.084-0.348c0.192,0.007,0.212-0.068,0.297-0.043
	c0.037,0.011,0.084,0.039,0.163,0.1c0.264,0.207,0.423,0.29,0.517,0.332c0.095,0.043,0.236,0.243,0.482,0.31
	c0.245,0.068,0.314,0.167,0.437,0.19c0.121,0.024,0.361,0.032,0.361,0.032c0.013,0.008,0.028,0.016,0.042,0.023
	c0.195,0.102,0.388,0.205,0.581,0.307c0,0,0.011,0.383,0.074,0.443c0.065,0.06,0.215,0.387,0.39,0.374
	c0.032-0.002,0.058-0.001,0.079,0.001c0.097,0.011,0.114,0.065,0.171,0.159c0.069,0.116,0.118,0.326,0.118,0.326
	c0.073,0.071,0.147,0.142,0.223,0.213c0,0,0.215,0.101,0.331,0.123c0.119,0.023,0.469,0.052,0.469,0.052
	c-0.016-0.063-0.03-0.126-0.045-0.189c0.048-0.006,0.095-0.009,0.143-0.015c-0.082-0.065-0.166-0.13-0.248-0.195
	c0.129,0.042,0.257,0.083,0.386,0.125c0.055-0.036,0.108-0.072,0.163-0.108c-0.154-0.111-0.309-0.223-0.464-0.334
	c-0.087-0.091-0.172-0.182-0.258-0.273c0,0-0.081-0.229,0.078-0.092c0.158,0.138,0.182,0.082,0.315-0.028
	c0.132-0.109-0.151-0.082,0.132-0.109c0.259-0.027,0.346-0.104,0.452-0.045c0.011,0.006,0.022,0.013,0.035,0.022
	c0.106,0.084,0.376,0.146,0.452,0.162c0.011-0.004,0.021,0.004,0.021,0.004s-0.008-0.001-0.021-0.004
	c-0.016,0.008-0.033,0.047-0.017,0.193c0.021,0.245,0.091,0.36,0.156,0.456c0.065,0.096,0.196,0.268,0.337,0.271
	c0.143,0.004,0.258,0.027,0.322,0.122c0.066,0.095,0.192,0.266,0.192,0.266c0.18,0.017,0.36,0.034,0.54,0.051
	c0,0,0.175,0.079,0.255,0.025c0.078-0.054,0.182-0.144,0.182-0.144s0.215-0.105,0.479,0.05c0.263,0.155,0.235,0.172,0.566,0.162
	s0.174-0.235,0.37-0.193c0.195,0.042,0.472,0.048,0.608,0.052c0.076,0.001,0.118,0.01,0.144,0.034
	c0.02,0.021,0.027,0.05,0.029,0.099c0.01,0.111,0.067,0.516,0.048,0.605c-0.02,0.084-0.017,0.168-0.119,0.235
	c-0.009,0.006-0.017,0.011-0.026,0.017c-0.132,0.07-0.294,0.104-0.283,0.249c0.009,0.146,0.042,0.236,0.05,0.363
	c0.006,0.081,0.036,0.396,0.127,0.681c0.05,0.158,0.116,0.307,0.209,0.403c0.258,0.271,0.142,0.11,0.564,0.472
	c0.422,0.36,0.266,0.517,0.54,0.696s0.485,0.077,0.659,0.5c0,0-0.093,0.543,0.256,0.72c0.35,0.176,0.479,0.107,0.696,0.438
	c0.215,0.332,0.478,0.367,0.663,0.506c0.076,0.058,0.116,0.099,0.137,0.136c0.029,0.053,0.021,0.103,0.021,0.194
	c0,0.155-0.051,0.276,0,0.501c0.053,0.226,0.053,0.313,0.182,0.416c0.13,0.104,0.104,0.19,0.494,0.103
	c0.391-0.087,0.079-0.19,0.52-0.191c0.44,0,0.979-0.139,0.979-0.139s0.026-0.24,0.358-0.24c0.334-0.001,0.357-0.122,0.612-0.206
	c0.253-0.087,0.432-0.086,0.457-0.206c0.024-0.12,0.15-0.256,0.227-0.256c0.008,0,0.016,0,0.021,0c0.061,0,0.101,0,0.281,0
	c0.203,0,0.379,0,0.504-0.018c0.126-0.017-0.253-0.256,0.075-0.256c0.327,0.001,0.427,0.035,0.451-0.118
	c0.022-0.154,0.349-0.222,0.349-0.222s-0.002-0.137-0.002-0.188c0-0.052-0.152-0.258,0.071-0.257c0.226,0,0.102,0,0.398-0.17
	c0.298-0.17,0.271-0.376,0.194-0.462s-0.077-0.069-0.179-0.139c-0.101-0.068-0.229-0.225-0.304-0.225
	c-0.073-0.001-0.301,0.016-0.427-0.054c-0.126-0.07-0.304-0.141-0.383-0.245c-0.017-0.022-0.032-0.056-0.044-0.092
	c-0.047-0.128-0.065-0.307-0.065-0.307s-0.52,0.465-0.721,0.532c-0.2,0.068-0.71,0.014-0.838,0.064
	c-0.02,0.007-0.047,0.006-0.08-0.003c-0.179-0.044-0.517-0.299-0.673-0.49c-0.188-0.229,0.045-0.209-0.244-0.404
	c-0.204-0.137-0.449-0.336-0.58-0.485c-0.055-0.063-0.089-0.118-0.091-0.155c-0.006-0.123,0.439-0.561,0.658-0.293
	c0.219,0.27,0.462,0.588,0.979,0.715c0,0.001,0.238,0.282,0.622,0.339c0.382,0.055,0.828-0.255,0.983-0.149
	c0.154,0.104,0.138,0.419,0.616,0.473c0.479,0.056,0.856,0.179,1.106,0.18c0.09,0,0.174-0.006,0.277-0.014
	c0.185-0.013,0.432-0.028,0.892-0.015c0.721,0.02,0.766-0.153,0.919,0.037c0.149,0.189,0.077,0.344,0.521,0.345
	c0.064,0,0.111,0.009,0.148,0.021C85.749,55.155,85.671,55.374,86.22,55.327z M66.692,46.022c0.018,0.017,0.031,0.031,0.044,0.043
	c0.003,0.004,0.005,0.007,0.009,0.011C66.731,46.061,66.715,46.044,66.692,46.022z M67.928,44.439
	c-0.005-0.003-0.008-0.009-0.011-0.013c0.005,0.005,0.007,0.01,0.014,0.015C67.929,44.44,67.928,44.44,67.928,44.439z
	 M79.727,56.482c0,0-0.014,0.007-0.037,0.017l0,0C79.705,56.492,79.727,56.482,79.727,56.482z M84.221,50.975
	c0.049-0.002,0.095-0.005,0.142-0.008c0.006,0,0.009,0,0.015,0C84.325,50.97,84.272,50.973,84.221,50.975z"/>
<path opacity="0.25" fill="#8EC549" d="M61.214,49.096c0.233,0.01,0.268-0.105,0.256-0.236c-0.013-0.131-0.392-0.219-0.428-0.119
	C61.042,48.741,60.981,49.087,61.214,49.096z"/>
<path fill="#8EC549" d="M13.462,59.849c-0.219-0.037-0.253-0.285-0.378-0.481s-0.363-0.187-0.477-0.352
	c-0.043-0.065-0.084-0.121-0.124-0.168c0.011,0.18,0.024,0.359,0.04,0.538c0.041,0.007,0.077,0.022,0.108,0.057
	c0.109,0.119,0.109,0.118,0.137,0.184c0.029,0.064,0.066,0.232,0.066,0.232c0.202,0.061,0.402,0.12,0.601,0.182
	c0,0,0.342,0.323,0.364,0.122S13.682,59.887,13.462,59.849z"/>
<path opacity="0.25" fill="#8EC549" d="M24.277,43.095c-0.146,0.065,0.041,0.35,0.116,0.328c0.076-0.021,0.305-0.086,0.534-0.151
	c0.23-0.065,0.46-0.13,0.718-0.205c0.258-0.074,0.471-0.11,0.653-0.163c0.182-0.053,0.32-0.166,0.705-0.326
	c0.384-0.161,0.358-0.396,0.357-0.396c0,0-0.665,0.17-0.744,0.193c-0.078,0.022-0.745,0.289-1.516,0.508
	c-0.77,0.22,0.179-0.269,0.181-0.269c-0.002,0,0.844-0.292,0.925-0.316c0.078-0.022,0.593-0.221,0.594-0.222
	c0.319-0.085,0.639-0.171,0.962-0.257c-0.001,0,0.348-0.102,0.252-0.148c-0.095-0.044-0.212-0.184,0.057-0.264
	c0.27-0.079,0.531-0.206,0.531-0.206c0.027-0.049,0.056-0.099,0.083-0.148c-0.001,0,0.833-0.321,0.911-0.369
	c0.078-0.048-0.33,0.097-0.467,0.138c-0.137,0.04,0.047-0.34,0.202-0.437c0.154-0.097,1.079-0.318,1.333-0.392
	c0.252-0.075,0.448-0.133,0.642-0.214c0.192-0.082,0.368-0.412,0.596-0.479c0.229-0.066,0.638-0.286,0.862-0.376
	c0.225-0.09,0.812-0.36,0.812-0.36c0.18-0.077,0.358-0.152,0.538-0.229c0,0-0.329-0.136-0.736-0.046
	c-0.407,0.09-0.489,0.14-0.806,0.23c-0.315,0.09-0.4,0.114-0.799,0.229c-0.399,0.116-0.598,0.172-1.049,0.304
	s-0.367,0.107-1.066,0.311c-0.695,0.204-0.637,0.212-1.327,0.545c-0.687,0.331-0.999,0.345-1.298,0.432
	c-0.297,0.087-0.393,0.297-0.393,0.296c0.016,0.073,0.032,0.146,0.05,0.217c0.029,0.052,0.06,0.102,0.091,0.152
	c0,0-0.215,0.063-0.311,0.015c-0.097-0.049-0.342-0.003-0.342-0.003s-0.201,0.11-0.308,0.14c-0.105,0.031-0.477,0.139-0.634,0.184
	c-0.158,0.045-0.328,0.374-0.328,0.374c0.031,0.083,0.062,0.168,0.092,0.25c0,0,0.281,0.12,0.385,0.089
	c0.104-0.029,0.366-0.105,0.518-0.174c0.152-0.069,0.489-0.191,0.569-0.215c0.079-0.022,0.344,0.025,0.344,0.025
	s0.001,0.124-0.078,0.147s-0.229-0.008-0.229-0.008s-0.263,0.076-0.368,0.106c-0.105,0.03-0.229,0.216-0.385,0.26
	c-0.156,0.045-0.313,0.09-0.417,0.12c-0.104,0.029-0.184,0.151-0.364,0.202c-0.182,0.052-0.565,0.063-0.763,0.045
	c-0.197-0.019-0.296,0.33-0.296,0.328c0.17-0.047,0.34-0.095,0.511-0.143C24.378,42.75,24.425,43.029,24.277,43.095z"/>
<path opacity="0.25" fill="#8EC549" d="M61.015,49.479c0.015,0.154,0.027,0.309,0.041,0.463c0.077,0.003,0.155,0.006,0.233,0.009
	c0.027-0.038,0.056-0.075,0.083-0.113c0.07-0.007,0.139-0.014,0.208-0.021c0,0.001,0.1-0.442,0.049-0.488
	c0,0-0.125-0.091-0.175-0.137c-0.052-0.045-0.209,0.006-0.209,0.006c-0.059,0.017-0.119,0.034-0.181,0.051
	c-0.061,0.022-0.119,0.044-0.181,0.065C60.928,49.37,60.972,49.424,61.015,49.479z"/>
<path opacity="0.25" fill="#8EC549" d="M17.365,46.728c0.031,0.059,0.063,0.117,0.095,0.175c0,0,0.181-0.058,0.649-0.158
	c0.47-0.101,0.856-0.363,0.952-0.452c0.096-0.088,0.117,0.04,0.53,0.054c0.414,0.012,0.307-0.072,0.709-0.168
	c0.402-0.097-0.032-0.169,0.038-0.186c0.071-0.017,0.451-0.11,0.615-0.241c0.163-0.129-0.654,0.051-0.652-0.244
	c0.003-0.293,0.413-0.79,0.415-0.791c0.096-0.025,0.116-0.123,0.116-0.123c-0.178,0.045-0.356,0.091-0.533,0.135
	c0.024,0.102,0.051,0.203,0.075,0.305c0,0-0.114-0.109-0.322-0.105c-0.208,0.005-0.502,0.285-0.421,0.515
	c0.003,0.008,0.006,0.013,0.008,0.02c-0.035-0.063-0.11-0.158-0.212-0.084c-0.11,0.08,0.012-0.187-0.054-0.079
	s-0.319,0.122-0.541,0.082c-0.223-0.04-0.216,0.05-0.534,0.1c-0.318,0.049-0.375,0.107-0.685,0.175
	c-0.311,0.068-0.374,0.103-0.461,0.279c-0.085,0.175,0.352,0.171,0.113,0.222c-0.236,0.049-0.403,0.15-0.3,0.15
	c0.104,0.003,1.17-0.092,1.17-0.094c0,0-0.308,0.068-0.662,0.143c-0.355,0.075-0.759,0.157-0.725,0.367
	C16.784,46.934,17.365,46.729,17.365,46.728z"/>
<path opacity="0.25" fill="#8EC549" d="M53.277,45.366c0.303,0.076,0.298,0,0.587-0.061c0.291-0.062,0.266-0.062,0.679-0.087
	c0.412-0.025,0.111-0.431,0.202-0.489c0,0,0.2,0.087-0.053-0.062c-0.256-0.15-0.402-0.186,0.179-0.158
	c0.58,0.027,0.009-0.167-0.141-0.233c-0.151-0.068-0.22-0.026-0.607-0.046c-0.39-0.019-0.222,0.262-0.222,0.262
	s-0.142,0.054-0.419-0.065c-0.278-0.12-0.346-0.032-0.379,0.208c-0.032,0.24,0.086,0.154,0.308,0.166
	c0.223,0.011-0.017,0.104-0.214,0.125c-0.195,0.021-0.31,0.15-0.303,0.256C52.899,45.288,52.976,45.292,53.277,45.366z"/>
<path opacity="0.25" fill="#8EC549" d="M60.847,37.22c0.264,0.002,0.358-0.188,0.601-0.188c0.24,0.002,0.013,0.192,0.013,0.192
	c-0.66,0.098-0.688,0.062-0.184,0.309c0.504,0.246,0.394,0.005,0.719,0.112c0.326,0.107,0.154,0.003,0.361-0.292
	c0.206-0.295,0.111-0.226,0.475-0.258c0.365-0.033,0.324,0.212,0.486,0.267c0,0,0.37,0.109,0.719,0.112
	c0.35,0.002,0.417-0.103,0.263-0.104c-0.151-0.001-0.435-0.004-0.737-0.218c-0.302-0.214-1.129-0.325-1.129-0.325
	s0.24,0.002,0.355,0.038c0.116,0.036,0.603,0.074,0.908,0.076c0.306,0,0.367-0.017,0.761-0.123c0.395-0.105,0.171-0.25,0.171-0.25
	s-0.676-0.002-1.003-0.002c-0.327-0.001-0.609-0.002-1.024-0.003c-0.415-0.001-0.528,0.087-1.139,0.085
	c-0.61-0.002-0.698-0.002-1.004-0.003c-0.305-0.001-0.299,0.155-0.262,0.363C60.234,37.215,60.584,37.218,60.847,37.22z"/>
<text transform="matrix(1.0173 0 0 1 19.8613 64.1084)" fill="#00AEEF" stroke="#00AEEF" stroke-width="1.5" font-family="'PMingLiU'" font-size="18.9694">MAP2U</text>
<text transform="matrix(0.7966 0 0 1 29.9292 77.6445)"><tspan x="0" y="0" fill="#00A14B" stroke="#00A14B" stroke-width="0.25" font-family="'AdobeKaitiStd-Regular-GBpc-EUC-H'" font-size="8.7856"> </tspan><tspan x="21.964" y="0" fill="#ED1C24" stroke="#00AEEF" stroke-width="0.5" font-family="'AdobeKaitiStd-Regular-GBpc-EUC-H'" font-size="8.7856">-</tspan><tspan x="26.357" y="0" fill="#ED1C24" stroke="#ED1C24" stroke-width="0.25" font-family="'AdobeKaitiStd-Regular-GBpc-EUC-H'" font-size="8.7856"> </tspan><tspan x="30.749" y="0" fill="#00A14B" stroke="#00A14B" stroke-width="0.25" font-family="'AdobeKaitiStd-Regular-GBpc-EUC-H'" font-size="8.7856"></tspan></text>
<line fill="none" stroke="#00A14B" stroke-width="2" x1="15.941" y1="68.9" x2="82.961" y2="68.9"/>
<line fill="none" stroke="#00A14B" stroke-width="2" x1="15.941" y1="47.647" x2="82.961" y2="47.647"/>
<text transform="matrix(0.9848 0 0 1 36.6445 44.6089)" fill="#00A14B" stroke="#00A14B" stroke-width="0.25" font-family="'AdobeKaitiStd-Regular-GBpc-EUC-H'" font-size="11.3155"></text>
</svg>
